<svg width="285" height="93" viewBox="0 0 285 93" fill="none" xmlns="http://www.w3.org/2000/svg">
<path d="M45.9004 27.4492C45.9004 32.6055 44.8457 37.5859 42.7363 42.3906C40.627 47.1367 37.7852 51.3555 34.2109 55.0469C30.6953 58.7383 26.5645 61.6973 21.8184 63.9238C17.1309 66.0918 12.1797 67.1758 6.96484 67.1758H6.78906C5.73438 67.1758 4.85547 66.707 4.15234 65.7695C3.50781 64.7734 2.95117 63.543 2.48242 62.0781C2.01367 60.6133 1.66211 58.9727 1.42773 57.1562C1.19336 55.3398 1.01758 53.582 0.900391 51.8828C0.783203 50.125 0.724609 48.5723 0.724609 47.2246C0.724609 45.8184 0.724609 44.7637 0.724609 44.0605C0.724609 42.0684 0.753906 40.1055 0.8125 38.1719C0.871094 36.1797 0.958984 34.1875 1.07617 32.1953C1.07617 31.5508 1.10547 30.6133 1.16406 29.3828C1.28125 28.0938 1.39844 26.6582 1.51562 25.0762C1.63281 23.4941 1.7793 21.8535 1.95508 20.1543C2.13086 18.3965 2.30664 16.7852 2.48242 15.3203C2.7168 13.7969 2.92188 12.4785 3.09766 11.3652C3.33203 10.1934 3.5957 9.40234 3.88867 8.99219C4.65039 7.70312 5.82227 6.56055 7.4043 5.56445C8.98633 4.56836 10.6855 3.74805 12.502 3.10352C14.377 2.45898 16.252 1.99023 18.127 1.69727C20.0605 1.3457 21.7305 1.16992 23.1367 1.16992C27.0039 1.16992 30.3438 1.90234 33.1562 3.36719C36.0273 4.77344 38.4004 6.70703 40.2754 9.16797C42.209 11.5703 43.6152 14.3535 44.4941 17.5176C45.4316 20.6816 45.9004 23.9922 45.9004 27.4492ZM31.1348 29.998C31.1348 28.709 30.9004 27.3906 30.4316 26.043C29.9629 24.6953 29.2891 23.4648 28.4102 22.3516C27.5898 21.2383 26.5645 20.3594 25.334 19.7148C24.1621 19.0117 22.8438 18.6602 21.3789 18.6602C20.1484 18.6602 18.8887 18.9531 17.5996 19.5391C17.3066 19.7148 17.043 20.2715 16.8086 21.209C16.5742 22.0879 16.3691 23.1719 16.1934 24.4609C16.0762 25.75 15.959 27.1562 15.8418 28.6797C15.7246 30.2031 15.6367 31.668 15.5781 33.0742C15.5781 34.4219 15.5488 35.623 15.4902 36.6777C15.4902 37.7324 15.4902 38.4355 15.4902 38.7871C15.4902 39.373 15.4902 40.252 15.4902 41.4238C15.4902 42.5371 15.5195 43.6504 15.5781 44.7637C15.6953 45.877 15.8125 46.8438 15.9297 47.6641C16.0469 48.4844 16.252 48.8945 16.5449 48.8945C18.3027 48.8945 20.0312 48.2207 21.7305 46.873C23.4883 45.4668 25.0703 43.7676 26.4766 41.7754C27.8828 39.7832 28.9961 37.7031 29.8164 35.5352C30.6953 33.3672 31.1348 31.5215 31.1348 29.998Z" fill="white"/>
<path d="M66.5547 69.5488C63.5664 69.5488 60.959 68.7578 58.7324 67.1758C56.5059 65.5938 54.6309 63.5723 53.1074 61.1113C51.584 58.6504 50.4414 55.9258 49.6797 52.9375C48.918 49.8906 48.5371 46.9023 48.5371 43.9727C48.5371 40.8672 48.918 37.6738 49.6797 34.3926C50.4414 31.0527 51.6133 28.0352 53.1953 25.3398C54.7773 22.5859 56.7988 20.3594 59.2598 18.6602C61.7207 16.9023 64.6504 16.0234 68.0488 16.0234C71.3301 16.0234 74.1133 16.9316 76.3984 18.748C78.7422 20.5059 80.6172 22.7324 82.0234 25.4277C83.4297 28.0645 84.4258 30.9648 85.0117 34.1289C85.5977 37.293 85.8027 40.2812 85.627 43.0938C85.4512 46.1992 84.9531 49.334 84.1328 52.498C83.3711 55.6621 82.2285 58.5039 80.7051 61.0234C79.1816 63.543 77.248 65.5938 74.9043 67.1758C72.5605 68.7578 69.7773 69.5488 66.5547 69.5488ZM67.4336 29.8223C66.5547 29.8223 65.7637 30.291 65.0605 31.2285C64.416 32.166 63.8594 33.3086 63.3906 34.6562C62.9805 36.0039 62.6582 37.4395 62.4238 38.9629C62.1895 40.4277 62.0723 41.7168 62.0723 42.8301C62.0723 44.2363 62.1895 45.7598 62.4238 47.4004C62.7168 49.041 63.0977 50.5645 63.5664 51.9707C64.0352 53.3184 64.5918 54.4609 65.2363 55.3984C65.9395 56.2773 66.7305 56.7168 67.6094 56.7168C68.5469 56.7168 69.3379 56.2773 69.9824 55.3984C70.6855 54.5195 71.2422 53.4062 71.6523 52.0586C72.0625 50.7109 72.3555 49.2461 72.5312 47.6641C72.707 46.0234 72.7949 44.5 72.7949 43.0938C72.7949 41.8047 72.6777 40.3984 72.4434 38.875C72.209 37.293 71.8574 35.8281 71.3887 34.4805C70.9785 33.1328 70.4219 32.0195 69.7188 31.1406C69.0742 30.2617 68.3125 29.8223 67.4336 29.8223Z" fill="white"/>
<path d="M115.07 69.4609C114.074 69.4609 113.283 68.9922 112.697 68.0547C112.111 67.1758 111.672 66.1504 111.379 64.9785C111.086 63.8066 110.881 62.6348 110.764 61.4629C110.705 60.2324 110.676 59.2949 110.676 58.6504C110.676 56.8926 110.764 55.1348 110.939 53.377C111.174 51.6191 111.408 49.8613 111.643 48.1035C111.936 46.3457 112.17 44.5879 112.346 42.8301C112.58 41.0723 112.697 39.3145 112.697 37.5566C112.697 36.8535 112.668 36.0918 112.609 35.2715C112.551 34.4512 112.404 33.6895 112.17 32.9863C111.994 32.2246 111.672 31.6094 111.203 31.1406C110.734 30.6719 110.119 30.4375 109.357 30.4375C108.83 30.4375 108.244 30.877 107.6 31.7559C106.955 32.5762 106.34 33.543 105.754 34.6562C105.227 35.7109 104.758 36.7949 104.348 37.9082C103.996 38.9629 103.82 39.7539 103.82 40.2812C103.82 41.5703 103.82 42.8887 103.82 44.2363C103.879 45.5254 103.908 46.8438 103.908 48.1914V53.2891C103.85 54.3438 103.762 55.4277 103.645 56.541C103.527 57.6543 103.352 58.7383 103.117 59.793C102.941 60.8477 102.678 61.873 102.326 62.8691C101.975 63.8066 101.506 64.6562 100.92 65.418C100.393 66.1211 99.748 66.707 98.9863 67.1758C98.2246 67.6445 97.3164 67.8789 96.2617 67.8789C95.0898 67.8789 94.123 67.498 93.3613 66.7363C92.5996 65.9746 91.9844 65.0078 91.5156 63.8359C91.0469 62.6055 90.6953 61.2578 90.4609 59.793C90.2852 58.2695 90.1387 56.8047 90.0215 55.3984C89.9629 53.9336 89.9336 52.6152 89.9336 51.4434C89.9922 50.2129 90.0215 49.2461 90.0215 48.543V44.4121C90.0215 42.1855 89.9629 39.9883 89.8457 37.8203C89.7871 35.6523 89.7578 33.4844 89.7578 31.3164C89.7578 30.1445 89.7578 28.6504 89.7578 26.834C89.8164 25.0176 90.0508 23.2598 90.4609 21.5605C90.8711 19.8027 91.5449 18.3086 92.4824 17.0781C93.4199 15.8477 94.7969 15.2324 96.6133 15.2324C97.4336 15.2324 98.166 15.4961 98.8105 16.0234C99.4551 16.5508 100.012 17.1953 100.48 17.957C101.008 18.7188 101.418 19.5391 101.711 20.418C102.062 21.2969 102.326 22.0586 102.502 22.7031C103.088 21.8828 103.762 21.0918 104.523 20.3301C105.344 19.5684 106.252 18.8945 107.248 18.3086C108.244 17.7227 109.357 17.2539 110.588 16.9023C111.818 16.5508 113.225 16.375 114.807 16.375C117.795 16.375 120.109 17.1074 121.75 18.5723C123.449 19.9785 124.68 21.7656 125.441 23.9336C126.262 26.043 126.76 28.3281 126.936 30.7891C127.111 33.25 127.199 35.4766 127.199 37.4688C127.199 38.4648 127.111 39.959 126.936 41.9512C126.76 43.8848 126.467 46.0527 126.057 48.4551C125.705 50.7988 125.207 53.2305 124.562 55.75C123.918 58.2109 123.156 60.4668 122.277 62.5176C121.398 64.5684 120.344 66.2383 119.113 67.5273C117.941 68.8164 116.594 69.4609 115.07 69.4609Z" fill="white"/>
<path d="M170.617 41.8633C170.617 45.0859 170.295 48.2793 169.65 51.4434C169.006 54.6074 167.922 57.4492 166.398 59.9688C164.875 62.4297 162.824 64.4219 160.246 65.9453C157.727 67.4688 154.562 68.2305 150.754 68.2305C147.004 68.2305 143.869 67.498 141.35 66.0332C138.83 64.5098 136.809 62.5176 135.285 60.0566C133.82 57.5957 132.766 54.8125 132.121 51.707C131.535 48.6016 131.242 45.4375 131.242 42.2148C131.242 38.6992 131.652 35.2129 132.473 31.7559C132.648 30.8184 132.971 29.5293 133.439 27.8887C133.967 26.1895 134.611 24.5488 135.373 22.9668C136.193 21.3262 137.102 19.9199 138.098 18.748C139.152 17.5762 140.295 16.9902 141.525 16.9902C142.697 16.9902 143.635 17.3125 144.338 17.957C145.041 18.6016 145.598 19.4219 146.008 20.418C146.418 21.3555 146.682 22.3809 146.799 23.4941C146.916 24.5488 146.975 25.5156 146.975 26.3945C146.975 27.7422 146.857 29.0605 146.623 30.3496C146.447 31.6387 146.242 32.9277 146.008 34.2168C145.773 35.9746 145.539 37.7324 145.305 39.4902C145.129 41.248 145.041 43.0059 145.041 44.7637C145.041 45.6426 145.07 46.6387 145.129 47.752C145.246 48.8066 145.48 49.832 145.832 50.8281C146.184 51.8242 146.682 52.6738 147.326 53.377C147.971 54.0215 148.879 54.3438 150.051 54.3438C151.574 54.3438 152.775 53.9336 153.654 53.1133C154.592 52.293 155.266 51.2676 155.676 50.0371C156.145 48.8066 156.438 47.4883 156.555 46.082C156.672 44.6758 156.73 43.3867 156.73 42.2148C156.73 39.6367 156.555 37.1172 156.203 34.6562C155.852 32.1367 155.529 29.5879 155.236 27.0098C155.178 26.7168 155.148 26.3066 155.148 25.7793C155.148 24.9004 155.295 24.0215 155.588 23.1426C155.881 22.2637 156.291 21.4727 156.818 20.7695C157.346 20.0664 157.99 19.5098 158.752 19.0996C159.514 18.6309 160.363 18.3965 161.301 18.3965C162.59 18.3965 163.732 18.8652 164.729 19.8027C165.725 20.6816 166.545 21.8535 167.189 23.3184C167.893 24.7246 168.449 26.3359 168.859 28.1523C169.328 29.9102 169.68 31.668 169.914 33.4258C170.207 35.125 170.383 36.7363 170.441 38.2598C170.559 39.7832 170.617 40.9844 170.617 41.8633Z" fill="white"/>
<path d="M196.457 70.1641C192.297 70.1641 189.045 69.6074 186.701 68.4941C184.416 67.4395 182.688 65.916 181.516 63.9238C180.402 61.9316 179.729 59.5293 179.494 56.7168C179.26 53.9043 179.143 50.7695 179.143 47.3125C179.143 44.5586 179.23 41.8047 179.406 39.0508C179.582 36.2383 179.846 33.25 180.197 30.0859C179.377 30.0859 178.732 30.1152 178.264 30.1738C177.795 30.1738 177.414 30.1738 177.121 30.1738C175.246 30.1738 173.635 29.7637 172.287 28.9434C170.881 28.123 170.178 26.8633 170.178 25.1641C170.178 24.1094 170.588 23.1719 171.408 22.3516C172.17 21.5312 173.166 20.8281 174.396 20.2422C175.627 19.6562 176.945 19.1875 178.352 18.8359C179.816 18.4844 181.193 18.25 182.482 18.1328C182.482 16.4922 182.6 14.6758 182.834 12.6836C183.068 10.6914 183.479 8.8457 184.064 7.14648C184.709 5.38867 185.559 3.92383 186.613 2.75195C187.668 1.58008 189.016 0.994141 190.656 0.994141C191.594 0.994141 192.414 1.28711 193.117 1.87305C193.879 2.40039 194.494 3.10352 194.963 3.98242C195.432 4.80273 195.783 5.74023 196.018 6.79492C196.252 7.84961 196.369 8.875 196.369 9.87109C196.369 11.043 196.281 12.2441 196.105 13.4746C195.93 14.7051 195.607 16.2285 195.139 18.0449C196.135 17.9277 196.809 17.8691 197.16 17.8691C197.512 17.8105 197.834 17.7812 198.127 17.7812C199.123 17.7812 200.148 17.8691 201.203 18.0449C202.316 18.2207 203.312 18.5137 204.191 18.9238C205.129 19.334 205.891 19.8906 206.477 20.5938C207.062 21.2383 207.355 22.0293 207.355 22.9668C207.355 24.0215 206.916 24.959 206.037 25.7793C205.217 26.5996 204.162 27.3027 202.873 27.8887C201.584 28.4746 200.207 28.9434 198.742 29.2949C197.277 29.5879 195.9 29.793 194.611 29.9102C194.26 32.3125 193.996 34.5391 193.82 36.5898C193.703 38.582 193.557 40.6035 193.381 42.6543C193.264 43.6504 193.146 44.6758 193.029 45.7305C192.971 46.7266 192.941 47.752 192.941 48.8066C192.941 49.5684 192.971 50.4766 193.029 51.5312C193.088 52.5273 193.293 53.4941 193.645 54.4316C193.996 55.3691 194.553 56.1895 195.314 56.8926C196.076 57.5371 197.131 57.8594 198.479 57.8594C199.299 57.8594 200.148 57.8008 201.027 57.6836C201.906 57.5078 202.785 57.4199 203.664 57.4199C205.188 57.4199 206.271 57.9473 206.916 59.002C207.619 60.0566 207.971 61.4043 207.971 63.0449C207.971 64.2754 207.59 65.3594 206.828 66.2969C206.125 67.1758 205.217 67.8789 204.104 68.4062C202.99 68.9922 201.73 69.4316 200.324 69.7246C198.977 70.0176 197.688 70.1641 196.457 70.1641Z" fill="white"/>
<path d="M230.207 70.1641C226.047 70.1641 222.795 69.6074 220.451 68.4941C218.166 67.4395 216.438 65.916 215.266 63.9238C214.152 61.9316 213.479 59.5293 213.244 56.7168C213.01 53.9043 212.893 50.7695 212.893 47.3125C212.893 44.5586 212.98 41.8047 213.156 39.0508C213.332 36.2383 213.596 33.25 213.947 30.0859C213.127 30.0859 212.482 30.1152 212.014 30.1738C211.545 30.1738 211.164 30.1738 210.871 30.1738C208.996 30.1738 207.385 29.7637 206.037 28.9434C204.631 28.123 203.928 26.8633 203.928 25.1641C203.928 24.1094 204.338 23.1719 205.158 22.3516C205.92 21.5312 206.916 20.8281 208.146 20.2422C209.377 19.6562 210.695 19.1875 212.102 18.8359C213.566 18.4844 214.943 18.25 216.232 18.1328C216.232 16.4922 216.35 14.6758 216.584 12.6836C216.818 10.6914 217.229 8.8457 217.814 7.14648C218.459 5.38867 219.309 3.92383 220.363 2.75195C221.418 1.58008 222.766 0.994141 224.406 0.994141C225.344 0.994141 226.164 1.28711 226.867 1.87305C227.629 2.40039 228.244 3.10352 228.713 3.98242C229.182 4.80273 229.533 5.74023 229.768 6.79492C230.002 7.84961 230.119 8.875 230.119 9.87109C230.119 11.043 230.031 12.2441 229.855 13.4746C229.68 14.7051 229.357 16.2285 228.889 18.0449C229.885 17.9277 230.559 17.8691 230.91 17.8691C231.262 17.8105 231.584 17.7812 231.877 17.7812C232.873 17.7812 233.898 17.8691 234.953 18.0449C236.066 18.2207 237.062 18.5137 237.941 18.9238C238.879 19.334 239.641 19.8906 240.227 20.5938C240.812 21.2383 241.105 22.0293 241.105 22.9668C241.105 24.0215 240.666 24.959 239.787 25.7793C238.967 26.5996 237.912 27.3027 236.623 27.8887C235.334 28.4746 233.957 28.9434 232.492 29.2949C231.027 29.5879 229.65 29.793 228.361 29.9102C228.01 32.3125 227.746 34.5391 227.57 36.5898C227.453 38.582 227.307 40.6035 227.131 42.6543C227.014 43.6504 226.896 44.6758 226.779 45.7305C226.721 46.7266 226.691 47.752 226.691 48.8066C226.691 49.5684 226.721 50.4766 226.779 51.5312C226.838 52.5273 227.043 53.4941 227.395 54.4316C227.746 55.3691 228.303 56.1895 229.064 56.8926C229.826 57.5371 230.881 57.8594 232.229 57.8594C233.049 57.8594 233.898 57.8008 234.777 57.6836C235.656 57.5078 236.535 57.4199 237.414 57.4199C238.938 57.4199 240.021 57.9473 240.666 59.002C241.369 60.0566 241.721 61.4043 241.721 63.0449C241.721 64.2754 241.34 65.3594 240.578 66.2969C239.875 67.1758 238.967 67.8789 237.854 68.4062C236.74 68.9922 235.48 69.4316 234.074 69.7246C232.727 70.0176 231.438 70.1641 230.207 70.1641Z" fill="white"/>
<path d="M262.551 92.5762C261.145 92.5762 259.533 92.3418 257.717 91.873C255.959 91.4629 254.289 90.8477 252.707 90.0273C251.125 89.207 249.777 88.2109 248.664 87.0391C247.609 85.8672 247.082 84.5195 247.082 82.9961C247.082 82.4102 247.229 81.8242 247.521 81.2383C247.814 80.6523 248.195 80.125 248.664 79.6562C249.191 79.2461 249.748 78.8945 250.334 78.6016C250.92 78.3672 251.535 78.25 252.18 78.25C252.883 78.25 253.557 78.3379 254.201 78.5137C254.904 78.748 255.607 79.0117 256.311 79.3047C257.072 79.5977 257.805 79.8613 258.508 80.0957C259.27 80.3301 260.061 80.4473 260.881 80.4473C262.346 80.4473 263.605 79.9492 264.66 78.9531C265.773 77.957 266.711 76.6387 267.473 74.998C268.234 73.416 268.85 71.6289 269.318 69.6367C269.787 67.7031 270.139 65.7695 270.373 63.8359C270.666 61.9023 270.871 60.0859 270.988 58.3867C271.105 56.6875 271.193 55.3105 271.252 54.2559C269.201 57.3613 267.15 59.7637 265.1 61.4629C263.107 63.1035 260.646 63.9238 257.717 63.9238C255.49 63.9238 253.527 63.4551 251.828 62.5176C250.188 61.5801 248.781 60.3496 247.609 58.8262C246.438 57.3027 245.471 55.5742 244.709 53.6406C243.947 51.6484 243.361 49.5977 242.951 47.4883C242.6 45.3789 242.365 43.3281 242.248 41.3359C242.131 39.2852 242.131 37.4102 242.248 35.7109C242.307 34.4219 242.453 32.752 242.688 30.7012C242.98 28.5918 243.42 26.541 244.006 24.5488C244.592 22.5566 245.412 20.8867 246.467 19.5391C247.521 18.1328 248.898 17.4883 250.598 17.6055C251.711 17.6641 252.619 18.1621 253.322 19.0996C254.025 19.9785 254.582 21.0918 254.992 22.4395C255.461 23.7871 255.783 25.2812 255.959 26.9219C256.193 28.5039 256.34 30.0859 256.398 31.668C256.457 33.25 256.457 34.7148 256.398 36.0625C256.398 37.3516 256.398 38.3477 256.398 39.0508C256.398 40.0469 256.428 41.043 256.486 42.0391C256.545 43.0352 256.75 43.9434 257.102 44.7637C257.453 45.5254 257.98 46.1406 258.684 46.6094C259.445 47.0781 260.5 47.3125 261.848 47.3125C263.371 47.3125 264.572 46.9316 265.451 46.1699C266.389 45.4082 267.062 44.4707 267.473 43.3574C267.941 42.1855 268.234 40.9551 268.352 39.666C268.469 38.3184 268.527 37.0586 268.527 35.8867C268.527 35.0664 268.527 34.0703 268.527 32.8984C268.527 31.7266 268.527 30.4961 268.527 29.207C268.586 27.918 268.703 26.6582 268.879 25.4277C269.113 24.1387 269.436 22.9961 269.846 22C270.314 20.9453 270.9 20.0957 271.604 19.4512C272.365 18.8066 273.332 18.4844 274.504 18.4844C275.969 18.4844 277.229 19.0703 278.283 20.2422C279.338 21.3555 280.217 22.8496 280.92 24.7246C281.682 26.541 282.268 28.5625 282.678 30.7891C283.146 33.0156 283.498 35.2422 283.732 37.4688C283.967 39.6367 284.113 41.6582 284.172 43.5332C284.289 45.3496 284.348 46.7852 284.348 47.8398C284.348 50.3008 284.26 53.1133 284.084 56.2773C283.908 59.3828 283.557 62.6055 283.029 65.9453C282.561 69.2266 281.828 72.4492 280.832 75.6133C279.836 78.8359 278.518 81.707 276.877 84.2266C275.295 86.7461 273.332 88.7676 270.988 90.291C268.645 91.8145 265.832 92.5762 262.551 92.5762Z" fill="white"/>
</svg>
